<svg xmlns="http://www.w3.org/2000/svg" viewBox="0 0 1440 900" fill="currentColor">
  <g transform="translate(0,900) scale(0.1,-0.1)" class="stroke-none">
    <path d="M558 8763 l-3 -238 -278 -3 c-371 -3 -371 -21 0 -24 l278 -3 0 -345
    0 -345 -277 -3 c-372 -3 -372 -21 -1 -24 l278 -3 0 -345 0 -345 -278 -3 c-237
    -2 -277 -4 -277 -17 0 -13 39 -15 280 -15 l280 0 0 -345 0 -345 -280 0 c-242
    0 -280 -2 -280 -15 0 -13 38 -15 280 -15 l280 0 -2 -342 -3 -343 -278 -3
    c-237 -2 -277 -4 -277 -17 0 -13 39 -15 280 -15 l280 0 -2 -342 -3 -343 -277
    -3 c-238 -2 -278 -4 -278 -17 0 -13 39 -15 280 -15 l280 0 0 -345 0 -345 -280
    0 c-242 0 -280 -2 -280 -15 0 -13 38 -15 280 -15 l280 0 0 -345 0 -345 -280 0
    c-242 0 -280 -2 -280 -15 0 -13 38 -15 280 -15 l280 0 0 -345 0 -345 -280 0
    c-242 0 -280 -2 -280 -15 0 -13 38 -15 280 -15 l280 0 0 -345 0 -345 -280 0
    c-242 0 -280 -2 -280 -15 0 -13 38 -15 280 -15 l280 0 0 -345 0 -345 -280 0
    c-242 0 -280 -2 -280 -15 0 -13 38 -15 280 -15 l280 0 0 -345 0 -345 -280 0
    c-242 0 -280 -2 -280 -15 0 -13 38 -15 280 -15 l280 0 0 -285 c0 -183 4 -285
    10 -285 6 0 10 102 10 285 l0 285 335 0 335 0 0 -285 c0 -265 1 -285 18 -285
    16 0 17 19 14 285 l-3 285 338 -2 338 -3 0 -283 c0 -219 3 -282 13 -282 9 0
    12 64 12 285 l0 285 335 0 335 0 0 -285 c0 -247 2 -285 15 -285 13 0 15 38 15
    285 l0 285 335 0 335 0 0 -285 c0 -247 2 -285 15 -285 13 0 15 38 15 285 l0
    285 335 0 335 0 0 -285 c0 -183 4 -285 10 -285 6 0 10 102 10 285 l0 285 335
    0 335 0 0 -285 c0 -247 2 -285 15 -285 13 0 15 38 15 285 l0 285 335 0 335 0
    0 -285 c0 -247 2 -285 15 -285 13 0 15 38 15 285 l0 285 335 0 335 0 0 -285
    c0 -247 2 -285 15 -285 13 0 15 38 15 285 l0 285 335 0 335 0 0 -285 c0 -183
    4 -285 10 -285 6 0 10 102 10 285 l0 285 335 0 335 0 0 -285 c0 -247 2 -285
    15 -285 13 0 15 38 15 285 l0 285 335 0 335 0 0 -285 c0 -247 2 -285 15 -285
    13 0 15 38 15 285 l0 285 335 0 335 0 0 -285 c0 -247 2 -285 15 -285 13 0 15
    38 15 285 l0 285 335 0 335 0 0 -285 c0 -183 4 -285 10 -285 6 0 10 102 10
    285 l0 285 335 0 335 0 0 -285 c0 -247 2 -285 15 -285 13 0 15 38 15 285 l0
    285 335 0 335 0 0 -285 c0 -247 2 -285 15 -285 13 0 15 38 15 285 l0 285 335
    0 335 0 0 -285 c0 -247 2 -285 15 -285 13 0 15 38 15 285 l0 285 335 0 335 0
    0 -285 c0 -247 2 -285 15 -285 13 0 15 38 15 285 l0 285 335 0 335 0 0 -285
    c0 -183 4 -285 10 -285 6 0 10 102 10 285 l0 285 335 0 335 0 0 -285 c0 -247
    2 -285 15 -285 13 0 15 38 15 285 l0 285 280 0 c242 0 280 2 280 15 0 13 -38
    15 -280 15 l-280 0 0 345 0 345 280 0 c242 0 280 2 280 15 0 13 -38 15 -280
    15 l-280 0 0 345 0 345 280 0 c242 0 280 2 280 15 0 13 -38 15 -280 15 l-280
    0 0 345 0 345 280 0 c242 0 280 2 280 15 0 13 -38 15 -280 15 l-280 0 0 345 0
    345 280 0 c242 0 280 2 280 15 0 13 -38 15 -280 15 l-280 0 0 345 0 345 280 0
    c242 0 280 2 280 15 0 13 -38 15 -280 15 l-280 0 0 345 0 345 280 0 c242 0
    280 2 280 15 0 13 -38 15 -280 15 l-280 0 0 345 0 345 280 0 c242 0 280 2 280
    15 0 13 -38 15 -280 15 l-280 0 0 345 0 345 280 0 c242 0 280 2 280 15 0 13
    -38 15 -280 15 l-280 0 0 345 0 345 280 0 c242 0 280 2 280 15 0 13 -38 15
    -280 15 l-280 0 2 348 3 347 278 3 c173 1 277 6 277 12 0 6 -103 10 -280 10
    l-280 0 2 348 3 347 278 3 c173 1 277 6 277 12 0 6 -103 10 -280 10 l-280 0 0
    240 c0 207 -2 240 -15 240 -13 0 -15 -33 -15 -240 l0 -240 -332 2 -333 3 -3
    238 c-1 143 -6 237 -12 237 -6 0 -11 -94 -12 -237 l-3 -238 -332 -3 -333 -2 0
    240 c0 207 -2 240 -15 240 -13 0 -15 -33 -15 -240 l0 -240 -335 0 -335 0 0
    240 c0 207 -2 240 -15 240 -13 0 -15 -33 -15 -240 l0 -240 -335 0 -335 0 0
    240 c0 207 -2 240 -15 240 -13 0 -15 -33 -15 -240 l0 -240 -332 2 -333 3 -3
    238 c-2 201 -5 237 -17 237 -13 0 -15 -35 -15 -240 l0 -240 -332 2 -333 3 -3
    238 c-1 143 -6 237 -12 237 -6 0 -11 -94 -12 -237 l-3 -238 -332 -3 -333 -2 0
    240 c0 207 -2 240 -15 240 -13 0 -15 -33 -15 -240 l0 -240 -335 0 -335 0 0
    240 c0 207 -2 240 -15 240 -13 0 -15 -33 -15 -240 l0 -240 -335 0 -335 0 0
    240 c0 207 -2 240 -15 240 -13 0 -15 -33 -15 -240 l0 -240 -332 2 -333 3 -3
    238 c-1 143 -6 237 -12 237 -6 0 -11 -94 -12 -237 l-3 -238 -332 -3 -333 -2 0
    240 c0 205 -2 240 -15 240 -12 0 -15 -36 -17 -237 l-3 -238 -332 -3 -333 -2 0
    240 c0 207 -2 240 -15 240 -13 0 -15 -33 -15 -240 l0 -240 -335 0 -335 0 0
    240 c0 207 -2 240 -15 240 -13 0 -15 -33 -15 -240 l0 -240 -332 2 -333 3 -3
    238 c-1 143 -6 237 -12 237 -6 0 -11 -94 -12 -237 l-3 -238 -332 -3 -333 -2 0
    240 c0 205 -2 240 -15 240 -12 0 -15 -36 -17 -237 l-3 -238 -332 -3 -333 -2 0
    240 c0 207 -2 240 -15 240 -13 0 -15 -33 -15 -240 l0 -240 -335 0 -335 0 0
    240 c0 185 -3 240 -12 240 -10 0 -13 -54 -13 -237 l0 -238 -335 0 -335 0 -3
    238 c-2 201 -5 237 -17 237 -13 0 -15 -35 -15 -240 l0 -240 -332 2 -333 3 -3
    238 c-1 143 -6 237 -12 237 -6 0 -11 -94 -12 -237z m692 -613 l0 -350 -332 2
    -333 3 -3 335 c-1 184 0 341 3 347 3 10 79 13 335 13 l330 0 0 -350z m705 0
    l0 -345 -335 0 -335 0 -3 335 c-1 184 0 341 3 348 3 10 75 12 337 10 l333 -3
    0 -345z m693 -2 l2 -348 -335 0 -335 0 0 343 c0 189 3 347 7 350 4 4 153 6
    332 5 l326 -3 3 -347z m697 2 l0 -345 -332 -3 -333 -2 0 350 0 350 333 -2 332
    -3 0 -345z m700 0 l0 -345 -332 -3 -333 -2 0 350 0 350 333 -2 332 -3 0 -345z
    m695 0 l0 -350 -335 0 -335 0 0 343 c0 189 3 347 7 350 3 4 154 7 335 7 l328
    0 0 -350z m700 0 l0 -350 -335 0 -335 0 0 343 c0 189 3 347 7 350 3 4 154 7
    335 7 l328 0 0 -350z m698 -2 l2 -348 -335 0 -335 0 0 343 c0 189 3 347 7 350
    4 4 153 6 332 5 l326 -3 3 -347z m700 0 l2 -348 -335 0 -335 0 0 350 0 350
    333 -2 332 -3 3 -347z m692 2 l0 -350 -335 0 -335 0 0 343 c0 189 3 347 7 350
    3 4 154 7 335 7 l328 0 0 -350z m700 0 l0 -350 -335 0 -335 0 0 343 c0 189 3
    347 7 350 3 4 154 7 335 7 l328 0 0 -350z m700 0 l0 -350 -335 0 -335 0 0 343
    c0 189 3 347 7 350 3 4 154 7 335 7 l328 0 0 -350z m695 0 l0 -345 -332 -3
    -333 -2 0 343 c0 189 3 347 7 350 4 4 153 6 332 5 l326 -3 0 -345z m695 0 l0
    -350 -332 2 -333 3 -3 335 c-1 184 0 341 3 347 3 10 79 13 335 13 l330 0 0
    -350z m698 -2 l2 -348 -335 0 -335 0 0 343 c0 189 3 347 7 350 4 4 153 6 332
    5 l326 -3 3 -347z m700 0 l2 -348 -335 0 -335 0 0 343 c0 189 3 347 7 350 4 4
    153 6 332 5 l326 -3 3 -347z m700 0 l2 -348 -335 0 -335 0 0 343 c0 189 3 347
    7 350 4 4 153 6 332 5 l326 -3 3 -347z m697 2 l0 -345 -332 -3 -333 -2 0 350
    0 350 333 -2 332 -3 0 -345z m695 0 l0 -350 -332 2 -333 3 -3 335 c-1 184 0
    341 3 347 3 10 79 13 335 13 l330 0 0 -350z m-12560 -720 l0 -350 -332 2 -333
    3 -3 335 c-1 184 0 341 3 347 3 10 79 13 335 13 l330 0 0 -350z m705 0 l0
    -345 -335 0 -335 0 -3 335 c-1 184 0 341 3 348 3 10 75 12 337 10 l333 -3 0
    -345z m693 -2 l2 -348 -335 0 -335 0 0 350 0 350 333 -2 332 -3 3 -347z m700
    0 l2 -348 -335 0 -335 0 0 350 0 350 333 -2 332 -3 3 -347z m697 2 l0 -345
    -332 -3 -333 -2 0 350 0 350 333 -2 332 -3 0 -345z m695 0 l0 -350 -332 2
    -333 3 -3 335 c-1 184 0 341 3 347 3 10 79 13 335 13 l330 0 0 -350z m700 0
    l0 -350 -335 0 -335 0 0 343 c0 189 3 347 7 350 3 4 154 7 335 7 l328 0 0
    -350z m698 -2 l2 -348 -335 0 -335 0 0 350 0 350 333 -2 332 -3 3 -347z m697
    2 l0 -345 -332 -3 -333 -2 0 350 0 350 333 -2 332 -3 0 -345z m695 0 l0 -350
    -332 2 -333 3 -3 335 c-1 184 0 341 3 347 3 10 79 13 335 13 l330 0 0 -350z
    m700 0 l0 -350 -335 0 -335 0 0 343 c0 189 3 347 7 350 3 4 154 7 335 7 l328
    0 0 -350z m700 0 l0 -350 -335 0 -335 0 0 343 c0 189 3 347 7 350 3 4 154 7
    335 7 l328 0 0 -350z m698 -2 l2 -348 -335 0 -335 0 0 350 0 350 333 -2 332
    -3 3 -347z m692 2 l0 -350 -332 2 -333 3 -3 335 c-1 184 0 341 3 347 3 10 79
    13 335 13 l330 0 0 -350z m700 0 l0 -350 -332 2 -333 3 -3 335 c-1 184 0 341
    3 347 3 10 79 13 335 13 l330 0 0 -350z m698 -2 l2 -348 -335 0 -335 0 0 343
    c0 189 3 347 7 350 4 4 153 6 332 5 l326 -3 3 -347z m700 0 l2 -348 -335 0
    -335 0 0 350 0 350 333 -2 332 -3 3 -347z m697 2 l0 -345 -332 -3 -333 -2 0
    350 0 350 333 -2 332 -3 0 -345z m695 0 l0 -350 -332 2 -333 3 -3 335 c-1 184
    0 341 3 347 3 10 79 13 335 13 l330 0 0 -350z m-12560 -725 l0 -345 -335 0
    -335 0 0 345 0 345 335 0 335 0 0 -345z m708 3 l-3 -343 -335 0 -335 0 -3 343
    -2 342 340 0 340 0 -2 -342z m692 -3 l0 -345 -335 0 -335 0 0 345 0 345 335 0
    335 0 0 -345z m700 0 l0 -345 -335 0 -335 0 0 345 0 345 335 0 335 0 0 -345z
    m698 3 l-3 -343 -332 -3 -333 -2 0 345 0 345 335 0 335 0 -2 -342z m692 -3 l0
    -345 -335 0 -335 0 0 345 0 345 335 0 335 0 0 -345z m700 0 l0 -345 -335 0
    -335 0 0 345 0 345 335 0 335 0 0 -345z m700 0 l0 -345 -335 0 -335 0 0 345 0
    345 335 0 335 0 0 -345z m698 3 l-3 -343 -332 -3 -333 -2 0 345 0 345 335 0
    335 0 -2 -342z m692 -3 l0 -345 -335 0 -335 0 0 345 0 345 335 0 335 0 0 -345z
    m700 0 l0 -345 -335 0 -335 0 0 345 0 345 335 0 335 0 0 -345z m700 0 l0 -345
    -335 0 -335 0 0 345 0 345 335 0 335 0 0 -345z m700 0 l0 -345 -335 0 -335 0
    0 345 0 345 335 0 335 0 0 -345z m690 0 l0 -345 -335 0 -335 0 0 345 0 345
    335 0 335 0 0 -345z m700 0 l0 -345 -335 0 -335 0 0 345 0 345 335 0 335 0 0
    -345z m700 0 l0 -345 -335 0 -335 0 0 345 0 345 335 0 335 0 0 -345z m700 0
    l0 -345 -335 0 -335 0 0 345 0 345 335 0 335 0 0 -345z m698 3 l-3 -343 -332
    -3 -333 -2 0 345 0 345 335 0 335 0 -2 -342z m692 -3 l0 -345 -335 0 -335 0 0
    345 0 345 335 0 335 0 0 -345z m-12560 -720 l0 -345 -332 2 -333 3 -3 343 -2
    342 335 0 335 0 0 -345z m708 3 l-3 -343 -335 0 -335 0 -3 343 -2 342 340 0
    340 0 -2 -342z m692 -3 l0 -345 -335 0 -335 0 0 345 0 345 335 0 335 0 0 -345z
    m700 0 l0 -345 -335 0 -335 0 0 345 0 345 335 0 335 0 0 -345z m698 3 l-3
    -343 -332 -3 -333 -2 0 345 0 345 335 0 335 0 -2 -342z m692 -3 l0 -345 -335
    0 -335 0 0 345 0 345 335 0 335 0 0 -345z m700 0 l0 -345 -335 0 -335 0 0 345
    0 345 335 0 335 0 0 -345z m700 0 l0 -345 -335 0 -335 0 0 345 0 345 335 0
    335 0 0 -345z m698 3 l-3 -343 -332 -3 -333 -2 0 345 0 345 335 0 335 0 -2
    -342z m692 -3 l0 -345 -335 0 -335 0 0 345 0 345 335 0 335 0 0 -345z m700 0
    l0 -345 -335 0 -335 0 0 345 0 345 335 0 335 0 0 -345z m700 0 l0 -345 -335 0
    -335 0 0 345 0 345 335 0 335 0 0 -345z m700 0 l0 -345 -335 0 -335 0 0 345 0
    345 335 0 335 0 0 -345z m690 0 l0 -345 -332 2 -333 3 -3 343 -2 342 335 0
    335 0 0 -345z m700 0 l0 -345 -335 0 -335 0 0 345 0 345 335 0 335 0 0 -345z
    m700 0 l0 -345 -335 0 -335 0 0 345 0 345 335 0 335 0 0 -345z m700 0 l0 -345
    -335 0 -335 0 0 345 0 345 335 0 335 0 0 -345z m698 3 l-3 -343 -332 -3 -333
    -2 0 345 0 345 335 0 335 0 -2 -342z m692 -3 l0 -345 -332 2 -333 3 -3 343 -2
    342 335 0 335 0 0 -345z m-12560 -720 l0 -345 -332 2 -333 3 -3 343 -2 342
    335 0 335 0 0 -345z m705 0 l0 -340 -335 0 -335 0 -3 343 -2 342 337 -2 338
    -3 0 -340z m695 0 l0 -345 -335 0 -335 0 0 345 0 345 335 0 335 0 0 -345z
    m700 0 l0 -345 -335 0 -335 0 0 345 0 345 335 0 335 0 0 -345z m698 3 l-3
    -343 -332 -3 -333 -2 0 345 0 345 335 0 335 0 -2 -342z m692 -3 l0 -345 -332
    2 -333 3 -3 343 -2 342 335 0 335 0 0 -345z m700 0 l0 -345 -332 2 -333 3 -3
    343 -2 342 335 0 335 0 0 -345z m700 0 l0 -345 -335 0 -335 0 0 345 0 345 335
    0 335 0 0 -345z m698 3 l-3 -343 -332 -3 -333 -2 0 345 0 345 335 0 335 0 -2
    -342z m692 -3 l0 -345 -332 2 -333 3 -3 343 -2 342 335 0 335 0 0 -345z m700
    0 l0 -345 -335 0 -335 0 0 345 0 345 335 0 335 0 0 -345z m700 0 l0 -345 -335
    0 -335 0 0 345 0 345 335 0 335 0 0 -345z m700 0 l0 -345 -335 0 -335 0 0 345
    0 345 335 0 335 0 0 -345z m690 0 l0 -345 -332 2 -333 3 -3 343 -2 342 335 0
    335 0 0 -345z m700 0 l0 -345 -332 2 -333 3 -3 343 -2 342 335 0 335 0 0 -345z
    m700 0 l0 -345 -335 0 -335 0 0 345 0 345 335 0 335 0 0 -345z m700 0 l0 -345
    -335 0 -335 0 0 345 0 345 335 0 335 0 0 -345z m698 3 l-3 -343 -332 -3 -333
    -2 0 345 0 345 335 0 335 0 -2 -342z m692 -3 l0 -345 -332 2 -333 3 -3 343 -2
    342 335 0 335 0 0 -345z m-12560 -720 l0 -345 -335 0 -335 0 0 345 0 345 335
    0 335 0 0 -345z m710 13 c0 -183 -4 -339 -8 -346 -7 -9 -81 -12 -338 -10
    l-329 3 -3 343 -2 342 340 0 340 0 0 -332z m690 -13 l0 -345 -335 0 -335 0 0
    345 0 345 335 0 335 0 0 -345z m700 0 l0 -345 -335 0 -335 0 0 345 0 345 335
    0 335 0 0 -345z m698 3 l-3 -343 -332 -3 -333 -2 0 345 0 345 335 0 335 0 -2
    -342z m692 -3 l0 -345 -335 0 -335 0 0 345 0 345 335 0 335 0 0 -345z m700 0
    l0 -345 -335 0 -335 0 0 345 0 345 335 0 335 0 0 -345z m700 0 l0 -345 -335 0
    -335 0 0 345 0 345 335 0 335 0 0 -345z m700 0 l0 -345 -335 0 -335 0 0 345 0
    345 335 0 335 0 0 -345z m690 0 l0 -345 -335 0 -335 0 0 345 0 345 335 0 335
    0 0 -345z m700 0 l0 -345 -335 0 -335 0 0 345 0 345 335 0 335 0 0 -345z m700
    0 l0 -345 -335 0 -335 0 0 345 0 345 335 0 335 0 0 -345z m700 0 l0 -345 -335
    0 -335 0 0 345 0 345 335 0 335 0 0 -345z m690 0 l0 -345 -332 2 -333 3 -3
    343 -2 342 335 0 335 0 0 -345z m700 0 l0 -345 -335 0 -335 0 0 345 0 345 335
    0 335 0 0 -345z m700 0 l0 -345 -335 0 -335 0 0 345 0 345 335 0 335 0 0 -345z
    m700 0 l0 -345 -335 0 -335 0 0 345 0 345 335 0 335 0 0 -345z m700 0 l0 -345
    -335 0 -335 0 0 345 0 345 335 0 335 0 0 -345z m690 0 l0 -345 -335 0 -335 0
    0 345 0 345 335 0 335 0 0 -345z m-12560 -720 l0 -345 -332 2 -333 3 -3 343
    -2 342 335 0 335 0 0 -345z m708 3 l-3 -343 -335 0 -335 0 -3 343 -2 342 340
    0 340 0 -2 -342z m692 -3 l0 -345 -335 0 -335 0 0 345 0 345 335 0 335 0 0
    -345z m700 0 l0 -345 -335 0 -335 0 0 345 0 345 335 0 335 0 0 -345z m698 3
    l-3 -343 -332 -3 -333 -2 0 345 0 345 335 0 335 0 -2 -342z m692 -3 l0 -345
    -335 0 -335 0 0 345 0 345 335 0 335 0 0 -345z m700 0 l0 -345 -335 0 -335 0
    0 345 0 345 335 0 335 0 0 -345z m700 0 l0 -345 -335 0 -335 0 0 345 0 345
    335 0 335 0 0 -345z m700 0 l0 -345 -335 0 -335 0 0 345 0 345 335 0 335 0 0
    -345z m690 0 l0 -345 -335 0 -335 0 0 345 0 345 335 0 335 0 0 -345z m700 0
    l0 -345 -335 0 -335 0 0 345 0 345 335 0 335 0 0 -345z m700 0 l0 -345 -335 0
    -335 0 0 345 0 345 335 0 335 0 0 -345z m700 0 l0 -345 -335 0 -335 0 0 345 0
    345 335 0 335 0 0 -345z m690 0 l0 -345 -335 0 -335 0 0 338 c0 186 3 342 7
    345 3 4 154 7 335 7 l328 0 0 -345z m700 0 l0 -345 -335 0 -335 0 0 345 0 345
    335 0 335 0 0 -345z m700 0 l0 -345 -335 0 -335 0 0 345 0 345 335 0 335 0 0
    -345z m700 0 l0 -345 -335 0 -335 0 0 345 0 345 335 0 335 0 0 -345z m700 0
    l0 -345 -335 0 -335 0 0 345 0 345 335 0 335 0 0 -345z m690 0 l0 -345 -332 2
    -333 3 -3 343 -2 342 335 0 335 0 0 -345z m-12560 -720 l0 -345 -335 0 -335 0
    0 345 0 345 335 0 335 0 0 -345z m705 0 l0 -340 -335 0 -335 0 -3 343 -2 342
    337 -2 338 -3 0 -340z m695 0 l0 -345 -335 0 -335 0 0 345 0 345 335 0 335 0
    0 -345z m700 0 l0 -345 -335 0 -335 0 0 345 0 345 335 0 335 0 0 -345z m700 0
    l0 -345 -335 0 -335 0 0 345 0 345 335 0 335 0 0 -345z m690 0 l0 -345 -335 0
    -335 0 0 345 0 345 335 0 335 0 0 -345z m700 0 l0 -345 -335 0 -335 0 0 345 0
    345 335 0 335 0 0 -345z m700 0 l0 -345 -335 0 -335 0 0 345 0 345 335 0 335
    0 0 -345z m700 0 l0 -345 -335 0 -335 0 0 345 0 345 335 0 335 0 0 -345z m690
    0 l0 -345 -335 0 -335 0 0 345 0 345 335 0 335 0 0 -345z m700 0 l0 -345 -335
    0 -335 0 0 345 0 345 335 0 335 0 0 -345z m700 0 l0 -345 -335 0 -335 0 0 345
    0 345 335 0 335 0 0 -345z m700 0 l0 -345 -335 0 -335 0 0 345 0 345 335 0
    335 0 0 -345z m690 0 l0 -345 -335 0 -335 0 0 345 0 345 335 0 335 0 0 -345z
    m700 0 l0 -345 -335 0 -335 0 0 345 0 345 335 0 335 0 0 -345z m700 0 l0 -345
    -335 0 -335 0 0 345 0 345 335 0 335 0 0 -345z m700 0 l0 -345 -335 0 -335 0
    0 345 0 345 335 0 335 0 0 -345z m700 0 l0 -345 -335 0 -335 0 0 345 0 345
    335 0 335 0 0 -345z m690 0 l0 -345 -335 0 -335 0 0 345 0 345 335 0 335 0 0
    -345z m-12560 -720 l0 -345 -335 0 -335 0 0 345 0 345 335 0 335 0 0 -345z
    m708 20 c1 -176 0 -330 -3 -342 l-5 -23 -335 0 -335 0 0 345 0 345 338 -2 337
    -3 3 -320z m692 -20 l0 -345 -335 0 -335 0 0 345 0 345 335 0 335 0 0 -345z
    m700 0 l0 -345 -335 0 -335 0 0 345 0 345 335 0 335 0 0 -345z m700 0 l0 -345
    -335 0 -335 0 0 345 0 345 335 0 335 0 0 -345z m690 0 l0 -345 -335 0 -335 0
    0 345 0 345 335 0 335 0 0 -345z m700 0 l0 -345 -335 0 -335 0 0 345 0 345
    335 0 335 0 0 -345z m700 0 l0 -345 -335 0 -335 0 0 345 0 345 335 0 335 0 0
    -345z m700 0 l0 -345 -335 0 -335 0 0 345 0 345 335 0 335 0 0 -345z m690 0
    l0 -345 -335 0 -335 0 0 345 0 345 335 0 335 0 0 -345z m700 0 l0 -345 -335 0
    -335 0 0 345 0 345 335 0 335 0 0 -345z m700 0 l0 -345 -335 0 -335 0 0 345 0
    345 335 0 335 0 0 -345z m700 0 l0 -345 -335 0 -335 0 0 345 0 345 335 0 335
    0 0 -345z m690 0 l0 -345 -335 0 -335 0 0 345 0 345 335 0 335 0 0 -345z m700
    0 l0 -345 -335 0 -335 0 0 345 0 345 335 0 335 0 0 -345z m700 0 l0 -345 -335
    0 -335 0 0 345 0 345 335 0 335 0 0 -345z m700 0 l0 -345 -335 0 -335 0 0 345
    0 345 335 0 335 0 0 -345z m700 0 l0 -345 -335 0 -335 0 0 345 0 345 335 0
    335 0 0 -345z m690 0 l0 -345 -335 0 -335 0 0 345 0 345 335 0 335 0 0 -345z
    m-12560 -720 l0 -345 -335 0 -335 0 0 345 0 345 335 0 335 0 0 -345z m705 0
    l0 -340 -337 -3 -338 -2 0 338 c0 186 3 342 7 345 4 4 155 6 337 5 l331 -3 0
    -340z m695 0 l0 -345 -335 0 -335 0 0 345 0 345 335 0 335 0 0 -345z m700 0
    l0 -345 -335 0 -335 0 0 345 0 345 335 0 335 0 0 -345z m700 0 l0 -345 -335 0
    -335 0 0 345 0 345 335 0 335 0 0 -345z m690 0 l0 -345 -335 0 -335 0 0 345 0
    345 335 0 335 0 0 -345z m700 0 l0 -345 -335 0 -335 0 0 345 0 345 335 0 335
    0 0 -345z m700 0 l0 -345 -335 0 -335 0 0 345 0 345 335 0 335 0 0 -345z m700
    0 l0 -345 -335 0 -335 0 0 345 0 345 335 0 335 0 0 -345z m690 0 l0 -345 -335
    0 -335 0 0 345 0 345 335 0 335 0 0 -345z m700 0 l0 -345 -335 0 -335 0 0 345
    0 345 335 0 335 0 0 -345z m700 0 l0 -345 -335 0 -335 0 0 345 0 345 335 0
    335 0 0 -345z m700 0 l0 -345 -335 0 -335 0 0 345 0 345 335 0 335 0 0 -345z
    m690 0 l0 -345 -335 0 -335 0 0 345 0 345 335 0 335 0 0 -345z m700 0 l0 -345
    -335 0 -335 0 0 345 0 345 335 0 335 0 0 -345z m700 0 l0 -345 -335 0 -335 0
    0 345 0 345 335 0 335 0 0 -345z m700 0 l0 -345 -335 0 -335 0 0 345 0 345
    335 0 335 0 0 -345z m698 -2 l2 -343 -335 0 -335 0 0 345 0 345 333 -2 332 -3
    3 -342z m692 2 l0 -345 -335 0 -335 0 0 345 0 345 335 0 335 0 0 -345z
    m-12560 -720 l0 -345 -335 0 -335 0 0 345 0 345 335 0 335 0 0 -345z m708 -2
    l2 -343 -340 0 -340 0 0 338 c0 186 3 342 7 345 4 4 155 6 337 5 l331 -3 3
    -342z m692 2 l0 -345 -335 0 -335 0 0 345 0 345 335 0 335 0 0 -345z m700 0
    l0 -345 -335 0 -335 0 0 345 0 345 335 0 335 0 0 -345z m700 0 l0 -345 -335 0
    -335 0 0 345 0 345 335 0 335 0 0 -345z m690 0 l0 -345 -335 0 -335 0 0 345 0
    345 335 0 335 0 0 -345z m700 0 l0 -345 -335 0 -335 0 0 345 0 345 335 0 335
    0 0 -345z m700 0 l0 -345 -335 0 -335 0 0 345 0 345 335 0 335 0 0 -345z m700
    0 l0 -345 -335 0 -335 0 0 345 0 345 335 0 335 0 0 -345z m690 0 l0 -345 -335
    0 -335 0 0 345 0 345 335 0 335 0 0 -345z m700 0 l0 -345 -335 0 -335 0 0 345
    0 345 335 0 335 0 0 -345z m700 0 l0 -345 -335 0 -335 0 0 345 0 345 335 0
    335 0 0 -345z m700 0 l0 -345 -335 0 -335 0 0 345 0 345 335 0 335 0 0 -345z
    m690 0 l0 -345 -335 0 -335 0 0 338 c0 186 3 342 7 345 3 4 154 7 335 7 l328
    0 0 -345z m700 0 l0 -345 -335 0 -335 0 0 345 0 345 335 0 335 0 0 -345z m700
    0 l0 -345 -335 0 -335 0 0 345 0 345 335 0 335 0 0 -345z m700 0 l0 -345 -335
    0 -335 0 0 345 0 345 335 0 335 0 0 -345z m700 0 l0 -345 -335 0 -335 0 0 345
    0 345 335 0 335 0 0 -345z m690 0 l0 -345 -335 0 -335 0 0 345 0 345 335 0
    335 0 0 -345z"/>
  </g>
</svg>
